<?xml version="1.0" encoding="UTF-8"?>
<svg id="uuid-1f540d21-3102-46e4-a13c-2670d2e5f862" data-name="레이어 1" xmlns="http://www.w3.org/2000/svg" viewBox="0 0 925.42082 910">
  <path class="uuid-b431b033-8f71-45e7-af77-5249d184dc46" d="m463.09325,0C207.01465,0,0,208.54079,0,466.53416c0,206.22788,132.64142,380.79548,316.65021,442.58041,23.00586,4.64475,31.4328-10.03838,31.4328-22.38969,0-10.81567-.75835-47.88857-.75835-86.51598-128.82133,27.81174-155.64726-55.61401-155.64726-55.61401-20.70241-54.06896-51.37687-67.96532-51.37687-67.96532-42.16315-28.57956,3.07124-28.57956,3.07124-28.57956,46.77,3.09016,71.31147,47.88857,71.31147,47.88857,41.39535,71.05555,108.09995,50.97873,134.93537,38.61794,3.82956-30.12468,16.10505-50.97873,29.13885-62.56222-102.74426-10.81567-210.84421-50.97873-210.84421-230.18164,0-50.97873,18.38951-92.6869,47.52834-125.12448-4.59738-11.58349-20.70241-59.48152,4.60686-123.58885,0,0,39.1014-12.36079,127.26674,47.88855,37.74674-10.21222,76.67431-15.40725,115.77806-15.45097,39.1014,0,78.96111,5.41257,115.76858,15.45097,88.17485-60.24932,127.27625-47.88855,127.27625-47.88855,25.30925,64.10734,9.19476,112.00536,4.59738,123.58885,29.90663,32.43758,47.53781,74.14571,47.53781,125.12448,0,179.20291-108.09995,218.58867-211.612,230.18164,16.87283,14.67365,31.4328,42.47599,31.4328,86.5065,0,62.56222-.75835,112.7732-.75835,128.21468,0,12.36079,8.43642,27.04392,31.4328,22.40864,184.00883-61.80387,316.65021-236.362,316.65021-442.58992C926.17703,208.54079,718.40407,0,463.09325,0Z"/>
</svg>